# xmcd
#
# Track frame offsets: 
#        150
#        15417
#        28783
#        48219
#        65149
#        82395
#        96654
#        116505
#        130486
#        147546
#        163129
#        176783
#        188045
#        205116
#        217847
#        233378
#
# Disc length: 3352 seconds
#
# Revision: 0
# Processed by: cddbd v1.5.2PL0 Copyright (c) Steve Scherf et al.
# Submitted via: ExactAudioCopy v0.90b4
#
DISCID=ea0d1610
DTITLE=Bobby Lueders Band - Still Swinging In Texas
DYEAR=2009
DGENRE=Swing
TTITLE0=Jersey Bounce
TTITLE1=Bubbles In My Beer
TTITLE2=Faded Love
TTITLE3=San Antonio Rose
TTITLE4=My Adobe Hacienda
TTITLE5=Time Changes Everything
TTITLE6=You Don't Know Me
TTITLE7=Miles And Miles Of Texas 
TTITLE8=Westfayla Waltz
TTITLE9=Kansas City
TTITLE10=South Of The Border
TTITLE11=Right Or Wrong
TTITLE12=Spanish Eyes
TTITLE13=Six Days On The Road
TTITLE14=Old Fashioned Love
TTITLE15=Austin Waltz
EXTD=
EXTT0=
EXTT1=
EXTT2=
EXTT3=
EXTT4=
EXTT5=
EXTT6=
EXTT7=
EXTT8=
EXTT9=
EXTT10=
EXTT11=
EXTT12=
EXTT13=
EXTT14=
EXTT15=
PLAYORDER=
